<svg id="Layer_1" data-name="Layer 1" xmlns="http://www.w3.org/2000/svg" xmlns:xlink="http://www.w3.org/1999/xlink" viewBox="0 0 6294 5581"><defs><style>.cls-1{mask:url(#mask);}.cls-10,.cls-2,.cls-4,.cls-6,.cls-8{mix-blend-mode:multiply;}.cls-2{fill:url(#linear-gradient);}.cls-3{mask:url(#mask-2);}.cls-4{fill:url(#linear-gradient-2);}.cls-5{mask:url(#mask-3);}.cls-6{fill:url(#linear-gradient-3);}.cls-7{mask:url(#mask-4);}.cls-8{fill:url(#linear-gradient-4);}.cls-9{mask:url(#mask-5);}.cls-10{fill:url(#linear-gradient-5);}.cls-11{fill:#00e7ff;}.cls-12{fill:#30ce52;}.cls-13,.cls-24,.cls-28,.cls-34,.cls-36,.cls-38{opacity:0.55;}.cls-14,.cls-30{fill:#fff;}.cls-15{fill:#390075;}.cls-16{opacity:0.3;}.cls-17{fill:#1f9fff;}.cls-18{fill:#1ebc61;}.cls-19{fill:#f7c414;}.cls-19,.cls-22,.cls-25,.cls-26,.cls-30,.cls-32,.cls-40{stroke:#390075;stroke-miterlimit:10;stroke-width:0;}.cls-20{opacity:0.75;}.cls-21{fill:#f4cb00;}.cls-22,.cls-29{fill:#38d4fc;}.cls-23{mask:url(#mask-6);}.cls-24{fill:url(#linear-gradient-6);}.cls-25{fill:#fbfcfc;}.cls-26,.cls-41{fill:#758b9b;}.cls-27{mask:url(#mask-7);}.cls-28{fill:url(#linear-gradient-7);}.cls-31{fill:#f22525;}.cls-32{fill:#262f6a;}.cls-33{mask:url(#mask-8);}.cls-34{fill:url(#linear-gradient-8);}.cls-35{mask:url(#mask-9);}.cls-36{fill:url(#linear-gradient-9);}.cls-37{mask:url(#mask-10);}.cls-38{fill:url(#linear-gradient-10);}.cls-39{opacity:0.2;}.cls-40{fill:#ebebeb;}.cls-42{fill:#ffe75a;}.cls-43{filter:url(#luminosity-noclip-10);}.cls-44{filter:url(#luminosity-noclip-9);}.cls-45{filter:url(#luminosity-noclip-8);}.cls-46{filter:url(#luminosity-noclip-7);}.cls-47{filter:url(#luminosity-noclip-6);}.cls-48{filter:url(#luminosity-noclip-5);}.cls-49{filter:url(#luminosity-noclip-4);}.cls-50{filter:url(#luminosity-noclip-3);}.cls-51{filter:url(#luminosity-noclip-2);}.cls-52{filter:url(#luminosity-noclip);}</style><filter id="luminosity-noclip" x="2397.85" y="-10192" width="724.39" height="32766" filterUnits="userSpaceOnUse" color-interpolation-filters="sRGB"><feFlood flood-color="#fff" result="bg"/><feBlend in="SourceGraphic" in2="bg"/></filter><mask id="mask" x="2397.85" y="-10192" width="724.39" height="32766" maskUnits="userSpaceOnUse"><g class="cls-52"/></mask><linearGradient id="linear-gradient" x1="2739.03" y1="2511.87" x2="1785.88" y2="3504.72" gradientTransform="translate(235.38)" gradientUnits="userSpaceOnUse"><stop offset="0" stop-color="#fff"/><stop offset="1"/></linearGradient><filter id="luminosity-noclip-2" x="2397.85" y="-10192" width="799.48" height="32766" filterUnits="userSpaceOnUse" color-interpolation-filters="sRGB"><feFlood flood-color="#fff" result="bg"/><feBlend in="SourceGraphic" in2="bg"/></filter><mask id="mask-2" x="2397.85" y="-10192" width="799.48" height="32766" maskUnits="userSpaceOnUse"><g class="cls-51"/></mask><linearGradient id="linear-gradient-2" x1="2984.53" y1="3055.44" x2="1652.8" y2="4442.66" xlink:href="#linear-gradient"/><filter id="luminosity-noclip-3" x="1417.22" y="-10192" width="540.5" height="32766" filterUnits="userSpaceOnUse" color-interpolation-filters="sRGB"><feFlood flood-color="#fff" result="bg"/><feBlend in="SourceGraphic" in2="bg"/></filter><mask id="mask-3" x="1417.22" y="-10192" width="540.5" height="32766" maskUnits="userSpaceOnUse"><g class="cls-50"/></mask><linearGradient id="linear-gradient-3" x1="2050.7" y1="2991.84" x2="1545.81" y2="3560.33" gradientTransform="matrix(1, 0, 0, 1, 0, 0)" xlink:href="#linear-gradient"/><filter id="luminosity-noclip-4" x="649.91" y="-10192" width="1307.81" height="32766" filterUnits="userSpaceOnUse" color-interpolation-filters="sRGB"><feFlood flood-color="#fff" result="bg"/><feBlend in="SourceGraphic" in2="bg"/></filter><mask id="mask-4" x="649.91" y="-10192" width="1307.81" height="32766" maskUnits="userSpaceOnUse"><g class="cls-49"/></mask><linearGradient id="linear-gradient-4" x1="1853.61" y1="2483.66" x2="751.97" y2="3624.1" gradientTransform="matrix(1, 0, 0, 1, 0, 0)" xlink:href="#linear-gradient"/><filter id="luminosity-noclip-5" x="623.74" y="-10192" width="676.06" height="32766" filterUnits="userSpaceOnUse" color-interpolation-filters="sRGB"><feFlood flood-color="#fff" result="bg"/><feBlend in="SourceGraphic" in2="bg"/></filter><mask id="mask-5" x="623.74" y="-10192" width="676.06" height="32766" maskUnits="userSpaceOnUse"><g class="cls-48"/></mask><linearGradient id="linear-gradient-5" x1="1130.29" y1="2546.02" x2="521.82" y2="3245.96" gradientTransform="matrix(1, 0, 0, 1, 0, 0)" xlink:href="#linear-gradient"/><filter id="luminosity-noclip-6" x="2397.85" y="2499.91" width="724.39" height="806.22" filterUnits="userSpaceOnUse" color-interpolation-filters="sRGB"><feFlood flood-color="#fff" result="bg"/><feBlend in="SourceGraphic" in2="bg"/></filter><mask id="mask-6" x="3691.85" y="3540.91" width="724.39" height="806.22" maskUnits="userSpaceOnUse"><g class="cls-47"><g transform="translate(1294 1041)"><g class="cls-1"><polygon class="cls-2" points="3122.24 2499.91 2397.85 3306.13 2397.85 2941.97 2799.95 2499.91 3122.24 2499.91"/></g></g></g></mask><linearGradient id="linear-gradient-6" x1="2739.03" y1="2511.87" x2="1785.88" y2="3504.72" gradientTransform="translate(1529.38 1041)" gradientUnits="userSpaceOnUse"><stop offset="0" stop-color="#fff"/><stop offset="1" stop-color="#fff"/></linearGradient><filter id="luminosity-noclip-7" x="2397.85" y="2796.63" width="799.48" height="1263.22" filterUnits="userSpaceOnUse" color-interpolation-filters="sRGB"><feFlood flood-color="#fff" result="bg"/><feBlend in="SourceGraphic" in2="bg"/></filter><mask id="mask-7" x="3691.85" y="3837.63" width="799.48" height="1263.22" maskUnits="userSpaceOnUse"><g class="cls-46"><g transform="translate(1294 1041)"><g class="cls-3"><polygon class="cls-4" points="3197.33 2796.63 3197.33 3332.5 2526.72 4059.85 2397.85 4059.85 2397.85 3684.26 3197.33 2796.63"/></g></g></g></mask><linearGradient id="linear-gradient-7" x1="2984.53" y1="3055.44" x2="1652.8" y2="4442.66" xlink:href="#linear-gradient-6"/><filter id="luminosity-noclip-8" x="1417.22" y="2915.76" width="540.5" height="604.46" filterUnits="userSpaceOnUse" color-interpolation-filters="sRGB"><feFlood flood-color="#fff" result="bg"/><feBlend in="SourceGraphic" in2="bg"/></filter><mask id="mask-8" x="2711.22" y="3956.76" width="540.5" height="604.46" maskUnits="userSpaceOnUse"><g class="cls-45"><g transform="translate(1294 1041)"><g class="cls-5"><polygon class="cls-6" points="1957.72 2915.76 1957.72 3281.43 1744.23 3520.22 1417.22 3520.22 1957.72 2915.76"/></g></g></g></mask><linearGradient id="linear-gradient-8" x1="3344.7" y1="4032.84" x2="2839.81" y2="4601.33" gradientTransform="matrix(1, 0, 0, 1, 0, 0)" xlink:href="#linear-gradient-6"/><filter id="luminosity-noclip-9" x="649.91" y="2514.14" width="1307.81" height="1006.08" filterUnits="userSpaceOnUse" color-interpolation-filters="sRGB"><feFlood flood-color="#fff" result="bg"/><feBlend in="SourceGraphic" in2="bg"/></filter><mask id="mask-9" x="1943.91" y="3555.14" width="1307.81" height="1006.08" maskUnits="userSpaceOnUse"><g class="cls-44"><g transform="translate(1294 1041)"><g class="cls-7"><path class="cls-8" d="M1957.72,2581.46v9.6l-831,929.15H649.91l899.88-1006.07h345.15C1929.61,2514.14,1957.72,2544.28,1957.72,2581.46Z"/></g></g></g></mask><linearGradient id="linear-gradient-9" x1="1853.61" y1="2483.66" x2="751.97" y2="3624.1" gradientTransform="matrix(1, 0, 0, 1, 0, 0)" xlink:href="#linear-gradient-6"/><filter id="luminosity-noclip-10" x="623.74" y="2514.14" width="676.06" height="755.97" filterUnits="userSpaceOnUse" color-interpolation-filters="sRGB"><feFlood flood-color="#fff" result="bg"/><feBlend in="SourceGraphic" in2="bg"/></filter><mask id="mask-10" x="1917.74" y="3555.14" width="676.06" height="755.97" maskUnits="userSpaceOnUse"><g class="cls-43"><g transform="translate(1294 1041)"><g class="cls-9"><polygon class="cls-10" points="1299.8 2514.14 623.74 3270.11 623.74 2965.6 1027.54 2514.14 1299.8 2514.14"/></g></g></g></mask><linearGradient id="linear-gradient-10" x1="2424.29" y1="3587.02" x2="1815.82" y2="4286.96" gradientTransform="matrix(1, 0, 0, 1, 0, 0)" xlink:href="#linear-gradient-6"/></defs><ellipse class="cls-11" cx="3242.46" cy="2607.67" rx="2431.78" ry="2607.67"/><path class="cls-12" d="M-591.57,4246.35c-75.13-223.87,134.88-313,382.46-183.13-51.23-132.28,74.87-216.07,177.57-130.45-43.54-227.95,92.92-346.18,291.1-304l174.61,122.71v494.84Z" transform="translate(1294 1041)"/><g class="cls-13"><path class="cls-14" d="M-591.61,4246.29h1.74c-22.23-179.83,171.5-242.23,396.16-124.46-51.22-132.27,74.78-216.09,177.53-130.51-43.53-228,92.92-346.15,291.15-304l159.2,111.94v-47.78L259.61,3628.8c-198.24-42.19-334.69,76-291.15,304-102.75-85.58-228.76-1.87-177.54,130.5C-456.69,3933.32-666.7,4022.52-591.61,4246.29Z" transform="translate(1294 1041)"/></g><path class="cls-15" d="M434.17,4273.81H-591.57c-10.8,0-20.44-7.26-24.1-18.16-31.42-93.64-19.05-173.71,34.82-225.49,70.48-67.71,198.32-72.17,334.74-14.46-3.24-47.06,13-89.27,47-117.07,37.58-30.74,87.67-36,135-16.84C-70.35,3793-48.47,3717.74-.55,3666.05c60.23-65,154.37-87.77,265.1-64.19a24.71,24.71,0,0,1,9.05,4l174.61,122.71a28,28,0,0,1,11.57,23v494.85C459.78,4261.51,448.31,4273.81,434.17,4273.81ZM-573,4218.88H408.56V3766.34l-158.81-111.6c-91.21-18.28-167-.59-214,50-46,49.58-60.56,126.51-42.23,222.49C-4.3,3938.52-8.92,3950-18,3956.09a24.23,24.23,0,0,1-29.24-1.64c-46.39-38.69-94.08-34-120.76-12.15-28.62,23.42-35.14,64.68-17.44,110.39a28.9,28.9,0,0,1-6.11,30.54,24.3,24.3,0,0,1-28.8,4.66c-133-69.77-264.14-76.53-326.29-16.82C-581.28,4104.33-590.25,4155.19-573,4218.88Z" transform="translate(1294 1041)"/><rect class="cls-14" x="5238.55" y="4575.46" width="839.01" height="163.58" rx="33.91"/><path class="cls-15" d="M4720.74,3703H4007.36c-37.19,0-67.44-32.44-67.44-72.32v-28.86c0-39.88,30.25-72.33,67.44-72.33h713.38c37.19,0,67.45,32.45,67.45,72.33v28.86C4788.19,3670.56,4757.93,3703,4720.74,3703Zm-713.38-163.58c-32.08,0-58.18,28-58.18,62.4v28.86c0,34.41,26.1,62.39,58.18,62.39h713.38c32.09,0,58.19-28,58.19-62.39v-28.86c0-34.41-26.1-62.4-58.19-62.4Z" transform="translate(1294 1041)"/><g class="cls-16"><path class="cls-15" d="M4720.74,3628.52H4007.36c-28.08,0-51.85-19.77-59.89-47a71.8,71.8,0,0,0-2.92,20.32v28.87c0,37.2,28.12,67.36,62.81,67.36h713.38c34.7,0,62.82-30.16,62.82-67.36v-28.87a71.45,71.45,0,0,0-2.93-20.32C4772.59,3608.75,4748.83,3628.52,4720.74,3628.52Z" transform="translate(1294 1041)"/></g><g class="cls-13"><path class="cls-14" d="M4783.56,3601.81v28.87a65.57,65.57,0,0,1-1.08,12c-5.2-31.47-30.87-55.33-61.74-55.33H4007.36c-30.87,0-56.53,23.86-61.73,55.33a65.57,65.57,0,0,1-1.08-12v-28.87c0-37.23,28.09-67.35,62.81-67.35h713.38C4755.47,3534.46,4783.56,3564.58,4783.56,3601.81Z" transform="translate(1294 1041)"/></g><polygon class="cls-17" points="5914.54 5297.43 5301.36 5297.43 5301.36 4739.04 6016.24 4739.04 5914.54 5297.43"/><g class="cls-16"><polygon class="cls-15" points="6016.27 4739.04 6000.75 4824 5301.36 4824 5301.36 4739.04 6016.27 4739.04"/></g><path class="cls-15" d="M4720.74,3725.5H4007.36c-48.76,0-88.42-42.53-88.42-94.82v-28.86c0-52.29,39.66-94.83,88.42-94.83h713.38c48.76,0,88.43,42.54,88.43,94.83v28.86C4809.17,3683,4769.5,3725.5,4720.74,3725.5Zm-713.38-163.58c-20.51,0-37.2,17.9-37.2,39.9v28.86c0,22,16.69,39.9,37.2,39.9h713.38c20.51,0,37.2-17.91,37.2-39.9v-28.86c0-22-16.69-39.9-37.2-39.9Z" transform="translate(1294 1041)"/><path class="cls-15" d="M4620.54,4283.89H4007.36c-14.14,0-25.61-12.3-25.61-27.47V3698c0-15.17,11.47-27.46,25.61-27.46h714.88a25,25,0,0,1,19.77,10,29,29,0,0,1,5.37,22.73l-101.7,558.38C4643.33,4274.58,4632.79,4283.89,4620.54,4283.89ZM4033,4229h566.48l91.69-503.46H4033Z" transform="translate(1294 1041)"/><path class="cls-18" d="M4041.76,3534.46V3337.2c9-93,76.27-110.66,76.27-110.66v-65.75h89.74v65.75s67.3,17.64,76.27,110.66v197.26Z" transform="translate(1294 1041)"/><g class="cls-13"><path class="cls-14" d="M4284,3337.2v197.26h-38.85V3357.21c-5.65-58.45-34.35-87.14-54.88-100.39a47.26,47.26,0,0,1-21.4-39.76v-36.23H4118v-20h89.74v65.72S4275,3244.15,4284,3337.2Z" transform="translate(1294 1041)"/></g><path class="cls-15" d="M4284,3558.52H4041.76c-12.39,0-22.43-10.78-22.43-24.06V3337.2c0-.82,0-1.65.11-2.47,7.6-78.67,51.33-111.92,76.16-124.63v-49.31c0-13.29,10-24.06,22.43-24.06h89.74c12.39,0,22.43,10.77,22.43,24.06v49.31c24.83,12.7,68.57,46,76.16,124.63.07.82.11,1.65.11,2.47v197.26C4306.47,3547.74,4296.43,3558.52,4284,3558.52Zm-219.85-48.12h197.42V3338.48c-7.69-74.24-58.66-88.43-59.17-88.57-10-2.64-17.11-12.29-17.11-23.37v-41.69h-44.86v41.69c0,11.08-7.07,20.73-17.11,23.37-1.9.54-51.61,15.6-59.17,88.58Z" transform="translate(1294 1041)"/><rect class="cls-18" x="5389.6" y="4132.52" width="134.6" height="79.69" rx="14.01"/><g class="cls-13"><path class="cls-14" d="M4230.17,3119.35v24.05c0,15.4-11.57,27.81-25.93,27.81h-41.82c14.27,0,25.94-12.41,25.94-27.81v-24.05c0-15.4-11.67-27.81-25.94-27.81h41.82C4218.6,3091.54,4230.17,3104,4230.17,3119.35Z" transform="translate(1294 1041)"/></g><path class="cls-15" d="M4204.26,3195.27h-82.72c-26.67,0-48.37-23.27-48.37-51.87v-24.06c0-28.6,21.7-51.87,48.37-51.87h82.72c26.68,0,48.38,23.27,48.38,51.87v24.06C4252.64,3172,4230.94,3195.27,4204.26,3195.27Zm-82.72-79.68a3.64,3.64,0,0,0-3.51,3.75v24.06a3.64,3.64,0,0,0,3.51,3.75h82.72a3.63,3.63,0,0,0,3.51-3.75v-24.06a3.63,3.63,0,0,0-3.51-3.75Z" transform="translate(1294 1041)"/><path class="cls-19" d="M5578,4378.2h344.39a27.25,27.25,0,0,1,27.25,27.25v170a0,0,0,0,1,0,0H5578a0,0,0,0,1,0,0V4378.2A0,0,0,0,1,5578,4378.2Z"/><g class="cls-20"><path class="cls-14" d="M4655.69,3391.37V3441c0-29.83-22.62-54.07-50.43-54.07H4284V3337.2h321.25C4633.07,3337.2,4655.69,3361.45,4655.69,3391.37Z" transform="translate(1294 1041)"/></g><path class="cls-15" d="M4655.69,3558.52H4284c-12.39,0-22.43-10.78-22.43-24.06V3337.2c0-13.28,10-24.06,22.43-24.06h321.17c40.2,0,72.91,35.08,72.91,78.19v143.13C4678.12,3547.74,4668.08,3558.52,4655.69,3558.52Zm-349.22-48.12h326.78V3391.33c0-16.59-12.58-30.07-28-30.07H4306.47Z" transform="translate(1294 1041)"/><path class="cls-17" d="M4316.44,3608.16h0c-29-17.93-38.89-57.66-22.17-88.72l210.25-390.5c16.73-31.07,53.77-41.71,82.74-23.78h0c29,17.94,38.9,57.66,22.17,88.73l-210.25,390.5C4382.46,3615.45,4345.41,3626.1,4316.44,3608.16Z" transform="translate(1294 1041)"/><g class="cls-13"><path class="cls-14" d="M4617.55,3161.59a68.29,68.29,0,0,1-8.08,32.33l-32.12,59.56a68.75,68.75,0,0,0,8.08-32.42c0-22.42-10.77-44.27-30.24-56.3-29-17.89-66-7.31-82.74,23.77l32-59.56c16.78-31.08,53.84-41.76,82.73-23.77C4606.69,3117.23,4617.55,3139.07,4617.55,3161.59Z" transform="translate(1294 1041)"/></g><path class="cls-15" d="M4346.59,3644.37a81.33,81.33,0,0,1-43-12.43c-19.93-12.34-34.19-32.27-40.15-56.1a97.67,97.67,0,0,1,8.61-70.14l210.25-390.49c23.76-44.13,76.58-59.3,117.72-33.84s55.31,82.12,31.55,126.25l-210.25,390.5c-11.51,21.38-30.09,36.67-52.33,43.06A81.22,81.22,0,0,1,4346.59,3644.37ZM4557,3123.94c-12.09,0-23.87,6.72-30.34,18.73l-210.25,390.5a39.64,39.64,0,0,0-3.49,28.45,37,37,0,0,0,16.29,22.75h0a32.72,32.72,0,0,0,26.53,3.74,35.19,35.19,0,0,0,21.23-17.46l210.24-390.51c9.64-17.9,3.9-40.86-12.8-51.21A33,33,0,0,0,4557,3123.94Z" transform="translate(1294 1041)"/><rect class="cls-21" x="1582.76" y="3096.81" width="3148.34" height="2013.97"/><g class="cls-13"><rect class="cls-14" x="4665.27" y="3096.81" width="65.86" height="2013.97"/></g><path class="cls-22" d="M3197.33,2572.13V4069.78H2397.85V2572.13c0-34.39,26-62.29,58.09-62.29h683.3C3171.31,2509.84,3197.33,2537.74,3197.33,2572.13Z" transform="translate(1294 1041)"/><g class="cls-13"><path class="cls-14" d="M3188.36,2584.49V4082.14h-44.77V2632.49c0-34.38-26-62.17-58.08-62.17H2402.1a52.56,52.56,0,0,0-11.88,1.31c5.43-28.23,28.78-49.43,56.75-49.43h683.31C3162.34,2522.2,3188.36,2550.1,3188.36,2584.49Z" transform="translate(1294 1041)"/></g><g class="cls-23"><polygon class="cls-24" points="4416.24 3540.91 3691.85 4347.13 3691.85 3982.97 4093.95 3540.91 4416.24 3540.91"/></g><path class="cls-25" d="M566.85,3589.86a69.76,69.76,0,0,0,20,49.11,67.82,67.82,0,0,0,48.49,20.43H1963.18c37.78,0,68.52-31.2,68.52-69.54a69.83,69.83,0,0,0-20.14-49.21,67.54,67.54,0,0,0-48.38-20.44H635.36C597.48,3520.21,566.85,3551.41,566.85,3589.86Z" transform="translate(1294 1041)"/><path class="cls-26" d="M145.29,4069.78H3580.54a0,0,0,0,1,0,0v90.91a92.19,92.19,0,0,1-92.19,92.19H237.48a92.19,92.19,0,0,1-92.19-92.19v-90.91A0,0,0,0,1,145.29,4069.78Z" transform="translate(5019.83 9363.65) rotate(180)"/><g class="cls-27"><polygon class="cls-28" points="4491.33 3837.63 4491.33 4373.5 3820.72 5100.85 3691.85 5100.85 3691.85 4725.26 4491.33 3837.63"/></g><g class="cls-13"><path class="cls-14" d="M145.34,4257h27c20.39-76.68,86.16-132.82,164.12-132.82H3430.34c47.12,0,89.74,20.54,120.68,53.61a184.39,184.39,0,0,1,23.87,32.08,186.88,186.88,0,0,0-44.36-82.39c-30.94-33.18-73.56-53.61-120.68-53.61H316C221.76,4073.9,145.34,4155.85,145.34,4257Z" transform="translate(1294 1041)"/></g><path class="cls-15" d="M3437.12,4097.24H288.71c-14.14,0-25.61-12.29-25.61-27.46v-2014c0-15.17,11.47-27.47,25.61-27.47H3437.12c14.15,0,25.61,12.3,25.61,27.47v2014C3462.73,4085,3451.27,4097.24,3437.12,4097.24Zm-3122.8-54.93H3411.51V2083.24H314.32Z" transform="translate(1294 1041)"/><path class="cls-15" d="M3580.54,4280.34H145.29c-14.14,0-25.61-12.3-25.61-27.47,0-116.1,88.09-210.56,196.35-210.56H3409.8c108.27,0,196.36,94.46,196.36,210.56C3606.16,4268,3594.69,4280.34,3580.54,4280.34ZM173.16,4225.41H3552.67c-12.13-72.76-71.58-128.17-142.87-128.17H316C244.74,4097.24,185.3,4152.65,173.16,4225.41Z" transform="translate(1294 1041)"/><path class="cls-15" d="M3197.33,4097.24H2397.85c-14.14,0-25.61-12.29-25.61-27.46V2572.09c0-49.47,37.53-89.72,83.66-89.72h683.38c46.13,0,83.66,40.25,83.66,89.72V4069.78C3222.94,4085,3211.47,4097.24,3197.33,4097.24Zm-773.87-54.93h748.26V2572.09c0-19.18-14.56-34.79-32.44-34.79H2455.9c-17.89,0-32.44,15.61-32.44,34.79Z" transform="translate(1294 1041)"/><path class="cls-15" d="M2533.43,3429.87c-14.14,0-25.61-12.29-25.61-27.46V3267.84c0-15.16,11.47-27.46,25.61-27.46s25.62,12.3,25.62,27.46v134.57C2559.05,3417.58,2547.58,3429.87,2533.43,3429.87Z" transform="translate(1294 1041)"/><path class="cls-29" d="M1962.91,3555.1H3217.82a33.9,33.9,0,0,1,33.9,33.9v972.18a0,0,0,0,1,0,0h-1334a0,0,0,0,1,0,0V3600.26A45.17,45.17,0,0,1,1962.91,3555.1Z"/><path class="cls-15" d="M1962.35,3525.14H619.11V2603.8c0-52.2,39.61-94.67,88.28-94.67H1894.93c37.17,0,67.42,32.43,67.42,72.29Zm-1334-9.93H1953.09V2581.42c0-34.39-26.09-62.36-58.16-62.36H707.39c-43.57,0-79,38-79,84.74Z" transform="translate(1294 1041)"/><path class="cls-15" d="M1966.81,3686.87H631.69c-49.9,0-90.49-43.54-90.49-97s40.59-97,90.49-97H1966.81c49.9,0,90.5,43.54,90.5,97S2016.71,3686.87,1966.81,3686.87ZM631.69,3547.71c-21.65,0-39.27,18.89-39.27,42.12s17.62,42.11,39.27,42.11H1966.81c21.66,0,39.28-18.89,39.28-42.11s-17.62-42.12-39.28-42.12Z" transform="translate(1294 1041)"/><g class="cls-16"><path class="cls-15" d="M1666.05,3659.4h297.13c37.78,0,68.52-31.2,68.52-69.54a69.83,69.83,0,0,0-20.14-49.21,67.54,67.54,0,0,0-48.38-20.44H1774C1771.81,3536.47,1757.52,3604.91,1666.05,3659.4Z" transform="translate(1294 1041)"/></g><polygon class="cls-30" points="2372.57 2033.4 2181.53 3096.68 1796.03 3096.68 2076.45 2033.4 2372.57 2033.4"/><path class="cls-30" d="M890.85,2055.68c0,269.43-388.82,269.43-388.82,0Z" transform="translate(1294 1041)"/><polygon class="cls-30" points="2992.45 2033.4 2965.44 3034.32 2962.57 3096.68 2570.34 3096.68 2586.94 2968.03 2654.06 2033.4 2992.45 2033.4"/><path class="cls-30" d="M1668.57,2055.68c0,269.43-388.91,269.43-388.91,0Z" transform="translate(1294 1041)"/><polygon class="cls-30" points="3740.2 3096.68 3351.38 3096.68 3350.22 3072.14 3321.05 2033.4 3656.48 2033.4 3739.48 3090.9 3740.2 3096.68"/><path class="cls-30" d="M2446.2,2055.68c0,269.43-388.82,269.43-388.82,0Z" transform="translate(1294 1041)"/><path class="cls-30" d="M3223.92,2055.68c0,269.43-388.82,269.43-388.82,0Z" transform="translate(1294 1041)"/><polygon class="cls-30" points="4514.6 3096.68 4129.1 3096.68 3938.06 2033.4 4234.18 2033.4 4514.6 3096.68"/><path class="cls-31" d="M782.45,992.4,608.59,1651.63,502,2055.68H113.13l370.42-997.56c14.74-39.68,50.54-65.72,90.37-65.72Z" transform="translate(1294 1041)"/><path class="cls-31" d="M3612.73,2055.68H3220.6L2940.18,992.4H3194.1c25.13,0,47.66,16.66,56.59,41.86Z" transform="translate(1294 1041)"/><g class="cls-13"><path class="cls-14" d="M3605.72,2055.68h-55.81L3173,992.4h14c25.14,0,47.67,16.66,56.6,41.86Z" transform="translate(1294 1041)"/></g><path class="cls-31" d="M502,2055.68c0,269.43-388.9,269.43-388.9,0Z" transform="translate(1294 1041)"/><g class="cls-13"><polygon class="cls-14" points="2076.45 2033.4 1796.03 3096.68 1728.73 3096.68 2009.15 2033.4 2076.45 2033.4"/></g><g class="cls-13"><path class="cls-14" d="M502,2055.68c0,150.3-121,216.79-228.1,199.28,84.89-13.76,160.8-80.16,160.8-199.28Z" transform="translate(1294 1041)"/></g><polygon class="cls-31" points="2654.06 2033.4 2586.94 2968.03 2570.34 3096.68 2181.53 3096.68 2224.94 2855.05 2372.57 2033.4 2654.06 2033.4"/><path class="cls-31" d="M1279.66,2055.68c0,269.43-388.81,269.43-388.81,0Z" transform="translate(1294 1041)"/><g class="cls-13"><polygon class="cls-14" points="2654.06 2033.4 2570.34 3096.68 2510.49 3096.68 2594.21 2033.4 2654.06 2033.4"/></g><g class="cls-13"><path class="cls-14" d="M1279.66,2055.68c0,148.57-118.18,215.25-224.33,200,86.23-12.41,164.48-79.1,164.48-200Z" transform="translate(1294 1041)"/></g><polygon class="cls-31" points="3351.38 3096.68 2962.57 3096.68 2965.44 3034.32 2992.45 2033.4 3321.05 2033.4 3350.22 3072.14 3351.38 3096.68"/><path class="cls-31" d="M2057.38,2055.68c0,269.43-388.81,269.43-388.81,0Z" transform="translate(1294 1041)"/><g class="cls-13"><polygon class="cls-14" points="3348.02 3096.68 3291.93 3096.68 3261.6 2033.4 3317.69 2033.4 3348.02 3096.68"/></g><g class="cls-13"><path class="cls-14" d="M2054,2055.68c0,147.7-116.93,214.48-222.45,200.24,87-11.84,166.36-78.52,166.36-200.24Z" transform="translate(1294 1041)"/></g><polygon class="cls-31" points="4129.1 3095.04 3740.2 3095.04 3739.66 3090.9 3656.48 2031.77 3938.06 2031.77 4129.1 3095.04"/><path class="cls-31" d="M2835.1,2054.07c0,269.43-388.9,269.43-388.9,0Z" transform="translate(1294 1041)"/><g class="cls-13"><polygon class="cls-14" points="4129.1 3095.04 4064.76 3095.04 3873.72 2031.77 3938.06 2031.77 4129.1 3095.04"/></g><g class="cls-13"><path class="cls-14" d="M2835.1,2054c0,149.63-119.88,216.12-226.57,199.57,85.33-13.28,162.23-79.77,162.23-199.57Z" transform="translate(1294 1041)"/></g><path class="cls-31" d="M3612.73,2055.68c0,269.43-388.81,269.43-388.81,0Z" transform="translate(1294 1041)"/><g class="cls-16"><path class="cls-15" d="M890.85,2055.68c0,269.43-388.82,269.43-388.82,0Z" transform="translate(1294 1041)"/></g><g class="cls-16"><path class="cls-15" d="M1668.57,2055.68c0,269.43-388.91,269.43-388.91,0Z" transform="translate(1294 1041)"/></g><g class="cls-16"><path class="cls-15" d="M2446.2,2055.68c0,269.43-388.82,269.43-388.82,0Z" transform="translate(1294 1041)"/></g><g class="cls-16"><path class="cls-15" d="M3223.92,2055.68c0,269.43-388.82,269.43-388.82,0Z" transform="translate(1294 1041)"/></g><g class="cls-16"><path class="cls-15" d="M502,2055.68c0,269.43-388.9,269.43-388.9,0Z" transform="translate(1294 1041)"/></g><g class="cls-16"><path class="cls-15" d="M1279.66,2055.68c0,269.43-388.81,269.43-388.81,0Z" transform="translate(1294 1041)"/></g><g class="cls-16"><path class="cls-15" d="M2057.38,2055.68c0,269.43-388.81,269.43-388.81,0Z" transform="translate(1294 1041)"/></g><g class="cls-16"><path class="cls-15" d="M2835.1,2054.07c0,269.43-388.9,269.43-388.9,0Z" transform="translate(1294 1041)"/></g><g class="cls-16"><path class="cls-15" d="M3612.73,2055.68c0,269.43-388.81,269.43-388.81,0Z" transform="translate(1294 1041)"/></g><g class="cls-13"><path class="cls-14" d="M3612.73,2055.68c0,149.24-119.34,215.83-225.86,199.66,85.79-13,163.05-79.48,163.05-199.66Z" transform="translate(1294 1041)"/></g><path class="cls-15" d="M502,2079.74H113.13a22.06,22.06,0,0,1-18.57-10.56,25.53,25.53,0,0,1-2.27-22.4l370.42-997.56c18.24-49.12,61.89-80.87,111.21-80.87H782.45a21.93,21.93,0,0,1,17.89,9.55A25.45,25.45,0,0,1,804,999L523.62,2062.22C520.89,2072.58,512.07,2079.74,502,2079.74ZM146.2,2031.62H485.06L752.79,1016.47H573.92c-30.83,0-58.12,19.84-69.53,50.54Z" transform="translate(1294 1041)"/><path class="cls-15" d="M3612.73,2079.74H3220.6c-10,0-18.86-7.16-21.59-17.52L2918.59,999a25.45,25.45,0,0,1,3.7-21.05,21.93,21.93,0,0,1,17.89-9.55h253.91c34.23,0,65.4,23,77.57,57.35l362,1021.43a25.51,25.51,0,0,1-2.5,22.2A22,22,0,0,1,3612.73,2079.74Zm-375.16-48.12h342.64L3229.72,1042.8c-5.59-15.75-19.9-26.33-35.63-26.33H2969.84Z" transform="translate(1294 1041)"/><path class="cls-15" d="M307.58,2281.8c-107.78,0-216.89-77.67-216.89-226.12,0-13.29,10-24.06,22.44-24.06H502c12.39,0,22.44,10.77,22.44,24.06C524.47,2204.13,415.36,2281.8,307.58,2281.8ZM136.77,2079.74c10.9,105.58,93.6,154,170.81,154s159.91-48.37,170.81-154Z" transform="translate(1294 1041)"/><path class="cls-15" d="M887.53,2079.74H502a22,22,0,0,1-17.89-9.55,25.43,25.43,0,0,1-3.69-21.06L760.86,985.86c2.74-10.36,11.55-17.51,21.59-17.51h296.12a21.89,21.89,0,0,1,17.3,8.74A25.32,25.32,0,0,1,1100.6,997l-191,1063.28C907.52,2071.55,898.28,2079.74,887.53,2079.74Zm-355.84-48.12H869l182.4-1015.15h-252Z" transform="translate(1294 1041)"/><path class="cls-15" d="M696.44,2281.8c-107.75,0-216.84-77.67-216.84-226.12,0-13.29,10-24.06,22.43-24.06H890.85c12.39,0,22.43,10.77,22.43,24.06C913.28,2204.13,804.2,2281.8,696.44,2281.8ZM525.68,2079.74c10.89,105.58,93.57,154,170.76,154s159.87-48.37,170.76-154Z" transform="translate(1294 1041)"/><path class="cls-15" d="M1276.34,2079.74H887.53a21.86,21.86,0,0,1-17.3-8.75,25.32,25.32,0,0,1-4.73-19.86l191-1063.27c2-11.33,11.28-19.51,22-19.51h281.49a21.79,21.79,0,0,1,16.52,7.77,25.2,25.2,0,0,1,5.84,18.31L1298.7,2057.71C1297.72,2070.16,1288,2079.74,1276.34,2079.74Zm-361.65-48.12h341l79.93-1015.15H1097.09Z" transform="translate(1294 1041)"/><path class="cls-15" d="M1085.25,2281.8c-107.75,0-216.83-77.67-216.83-226.12,0-13.29,10-24.06,22.43-24.06h388.81c12.39,0,22.43,10.77,22.43,24.06C1302.09,2204.13,1193,2281.8,1085.25,2281.8ZM914.49,2079.74c10.9,105.58,93.57,154,170.76,154s159.87-48.37,170.77-154Z" transform="translate(1294 1041)"/><path class="cls-15" d="M1668.57,2079.74H1276.34a21.78,21.78,0,0,1-16.52-7.78,25.18,25.18,0,0,1-5.83-18.31l83.72-1063.27c1-12.45,10.7-22,22.35-22h338.39a21.65,21.65,0,0,1,16.09,7.31,25,25,0,0,1,6.33,17.47L1691,2056.41C1690.62,2069.4,1680.69,2079.74,1668.57,2079.74Zm-367.82-48.12h346l28.53-1015.15H1380.68Z" transform="translate(1294 1041)"/><path class="cls-15" d="M1474.11,2281.8c-107.77,0-216.88-77.67-216.88-226.12,0-13.29,10-24.06,22.43-24.06h388.91c12.39,0,22.43,10.77,22.43,24.06C1691,2204.13,1581.89,2281.8,1474.11,2281.8Zm-170.8-202.06c10.89,105.58,93.59,154,170.8,154s159.91-48.37,170.81-154Z" transform="translate(1294 1041)"/><path class="cls-15" d="M2057.38,2079.74H1668.57a21.71,21.71,0,0,1-16.1-7.31,25,25,0,0,1-6.33-17.48L1676,991.68c.37-13,10.3-23.33,22.43-23.33h328.6c12.13,0,22.06,10.32,22.43,23.32l30.33,1063.27a25.07,25.07,0,0,1-6.33,17.49A21.71,21.71,0,0,1,2057.38,2079.74Zm-365.69-48.12h342.56l-29-1015.15H1720.22Z" transform="translate(1294 1041)"/><path class="cls-15" d="M1863,2281.8c-107.75,0-216.84-77.67-216.84-226.12,0-13.29,10-24.06,22.44-24.06h388.81c12.39,0,22.44,10.77,22.44,24.06C2079.82,2204.13,1970.73,2281.8,1863,2281.8Zm-170.76-202.06c10.89,105.58,93.57,154,170.76,154s159.87-48.37,170.77-154Z" transform="translate(1294 1041)"/><path class="cls-15" d="M2446.2,2079.74H2057.38c-12.12,0-22.05-10.33-22.42-23.32L2004.63,993.14a25,25,0,0,1,6.32-17.48,21.71,21.71,0,0,1,16.1-7.31h335.43c11.65,0,21.37,9.58,22.35,22l83.72,1063.27a25.18,25.18,0,0,1-5.83,18.31A21.78,21.78,0,0,1,2446.2,2079.74Zm-367.06-48.12h342.65l-79.93-1015.15H2050.18Z" transform="translate(1294 1041)"/><path class="cls-15" d="M2251.79,2281.8c-107.76,0-216.84-77.67-216.84-226.12,0-13.29,10-24.06,22.43-24.06H2446.2c12.39,0,22.43,10.77,22.43,24.06C2468.63,2204.13,2359.55,2281.8,2251.79,2281.8ZM2081,2079.74c10.89,105.58,93.57,154,170.76,154s159.87-48.37,170.76-154Z" transform="translate(1294 1041)"/><path class="cls-15" d="M2835.1,2079.74H2446.2c-11.66,0-21.38-9.58-22.36-22L2340.12,994.43a25.2,25.2,0,0,1,5.84-18.31,21.79,21.79,0,0,1,16.52-7.77h281.58c10.75,0,20,8.18,22,19.51l191,1063.27a25.32,25.32,0,0,1-4.73,19.86A21.87,21.87,0,0,1,2835.1,2079.74Zm-368.28-48.12h341.11l-182.4-1015.15H2386.88Z" transform="translate(1294 1041)"/><path class="cls-15" d="M2640.65,2281.8c-107.78,0-216.88-77.67-216.88-226.12,0-13.29,10-24.06,22.43-24.06h388.9c12.39,0,22.43,10.77,22.43,24.06C2857.53,2204.13,2748.42,2281.8,2640.65,2281.8Zm-170.81-202.06c10.9,105.58,93.6,154,170.81,154s159.91-48.37,170.81-154Z" transform="translate(1294 1041)"/><path class="cls-15" d="M3029.51,2281.8c-107.76,0-216.84-77.67-216.84-226.12,0-13.29,10-24.06,22.43-24.06h388.82c12.39,0,22.43,10.77,22.43,24.06C3246.35,2204.13,3137.26,2281.8,3029.51,2281.8Zm-170.77-202.06c10.9,105.58,93.58,154,170.77,154s159.87-48.37,170.76-154Z" transform="translate(1294 1041)"/><path class="cls-15" d="M3418.32,2281.8c-107.75,0-216.84-77.67-216.84-226.12,0-13.29,10.05-24.06,22.44-24.06h388.81c12.39,0,22.43,10.77,22.43,24.06C3635.16,2204.13,3526.08,2281.8,3418.32,2281.8Zm-170.76-202.06c10.89,105.58,93.57,154,170.76,154s159.87-48.37,170.77-154Z" transform="translate(1294 1041)"/><path class="cls-15" d="M3220.6,2079.74H2835.1c-10.75,0-20-8.19-22-19.51L2622,997a25.32,25.32,0,0,1,4.73-19.86,21.89,21.89,0,0,1,17.3-8.74h296.12c10,0,18.85,7.15,21.59,17.51l280.41,1063.27a25.43,25.43,0,0,1-3.69,21.06A22,22,0,0,1,3220.6,2079.74Zm-367-48.12h337.32L2923.21,1016.47h-252Z" transform="translate(1294 1041)"/><path class="cls-32" d="M2665.15,2054h-219l-.54-4.14Q2552.67,2052.93,2665.15,2054Z" transform="translate(1294 1041)"/><path class="cls-17" d="M2862.69,4359.92h243.86a18.4,18.4,0,0,1,18.4,18.4v182.82a0,0,0,0,1,0,0H2844.29a0,0,0,0,1,0,0V4378.32A18.4,18.4,0,0,1,2862.69,4359.92Z"/><g class="cls-13"><path class="cls-14" d="M1830.92,3355.48V3398c0-20.12-15.2-36.53-34.06-36.53H1584.39c-18.86,0-34.07,16.41-34.07,36.53v-42.52c0-20.22,15.21-36.52,34.07-36.52h212.47C1815.72,3319,1830.92,3335.26,1830.92,3355.48Z" transform="translate(1294 1041)"/></g><path class="cls-15" d="M1831,3545.94H1550.29c-13.29,0-24.06-11.55-24.06-25.8V3355.46c0-34.37,26.08-62.34,58.14-62.34h212.5c32.06,0,58.14,28,58.14,62.34v164.68C1855,3534.39,1844.24,3545.94,1831,3545.94Zm-256.62-51.59H1806.9V3355.46c0-5.92-4.5-10.74-10-10.74h-212.5c-5.53,0-10,4.82-10,10.74Z" transform="translate(1294 1041)"/><path class="cls-15" d="M1736.33,3409.94h-84.2c-10.23,0-18.52-8.9-18.52-19.87s8.29-19.86,18.52-19.86h84.2c10.23,0,18.52,8.9,18.52,19.86S1746.56,3409.94,1736.33,3409.94Z" transform="translate(1294 1041)"/><rect class="cls-31" x="2135.12" y="4190.52" width="468.31" height="370.62"/><path class="cls-15" d="M1309.43,3545.94H841.12c-13.28,0-24-11.55-24-25.8V3149.52c0-14.25,10.77-25.8,24-25.8h468.31c13.29,0,24.06,11.55,24.06,25.8v370.62C1333.49,3534.39,1322.72,3545.94,1309.43,3545.94Zm-444.25-51.59h420.2v-319H865.18Z" transform="translate(1294 1041)"/><rect class="cls-21" x="2117.48" y="4139.41" width="510.01" height="159.46"/><g class="cls-16"><rect class="cls-15" x="2117.48" y="4298.87" width="510.01" height="79.77"/></g><g class="cls-13"><rect class="cls-14" x="2117.48" y="4139.44" width="510.01" height="51.08"/></g><path class="cls-15" d="M1333.49,3283.66h-510c-13.29,0-24.06-11.55-24.06-25.8V3098.41c0-14.24,10.77-25.79,24.06-25.79h510c13.29,0,24.06,11.55,24.06,25.79v159.45C1357.55,3272.11,1346.78,3283.66,1333.49,3283.66Zm-486-51.59h461.91V3124.21H847.53Z" transform="translate(1294 1041)"/><polygon class="cls-18" points="2865.38 4561.14 2463.63 4561.14 2511.74 4082.17 2826.89 4082.17 2865.38 4561.14"/><g class="cls-13"><polygon class="cls-14" points="2865.38 4561.17 2861.05 4561.17 2826.89 4136.35 2511.74 4136.35 2469.11 4561.17 2463.63 4561.17 2511.74 4082.17 2826.89 4082.17 2865.38 4561.17"/></g><path class="cls-15" d="M1571.38,3545.94H1169.63a23.36,23.36,0,0,1-17.9-8.56,27,27,0,0,1-6-20l48.11-479c1.31-13.1,11.63-23,23.92-23h315.15c12.48,0,22.89,10.24,24,23.58l38.49,479a27,27,0,0,1-6.25,19.65A23.31,23.31,0,0,1,1571.38,3545.94Zm-375-51.59h348.75L1510.82,3067H1239.34Z" transform="translate(1294 1041)"/><path class="cls-15" d="M1453.5,3150.68c-13.29,0-24.06-11.55-24.06-25.79V2971.45c0-29.88-22.66-54.18-50.52-54.18s-50.52,24.3-50.52,54.18v153.44c0,14.24-10.77,25.79-24.05,25.79s-24.06-11.55-24.06-25.79V2971.45c0-58.33,44.25-105.78,98.63-105.78s98.63,47.45,98.63,105.78v153.44C1477.55,3139.13,1466.78,3150.68,1453.5,3150.68Z" transform="translate(1294 1041)"/><g class="cls-33"><polygon class="cls-34" points="3251.72 3956.76 3251.72 4322.43 3038.23 4561.22 2711.22 4561.22 3251.72 3956.76"/></g><g class="cls-35"><path class="cls-36" d="M1957.72,2581.46v9.6l-831,929.15H649.91l899.88-1006.07h345.15C1929.61,2514.14,1957.72,2544.28,1957.72,2581.46Z" transform="translate(1294 1041)"/></g><g class="cls-37"><polygon class="cls-38" points="2593.8 3555.14 1917.74 4311.11 1917.74 4006.6 2321.54 3555.14 2593.8 3555.14"/></g><path class="cls-15" d="M1957.72,3547.64h-1334c-14.14,0-25.61-12.3-25.61-27.47V2603.8c0-64.61,49-117.17,109.26-117.17H1894.93c48.75,0,88.4,42.53,88.4,94.79v938.75C1983.33,3535.34,1971.86,3547.64,1957.72,3547.64ZM649.36,3492.71H1932.1V2581.42c0-22-16.67-39.86-37.17-39.86H707.39c-32,0-58,27.92-58,62.24Z" transform="translate(1294 1041)"/><g class="cls-39"><polygon class="cls-15" points="3247.21 4717.04 3030.33 5114.9 1819.39 5114.9 1973.89 4700.4 3247.21 4717.04"/></g><g class="cls-39"><path class="cls-15" d="M566.85,4059.85s619.81,207.24,3008,150l5.65,43H145.29l16.48-78.52L243,4069.78Z" transform="translate(1294 1041)"/></g><path class="cls-15" d="M-1089,4247.27c123.86-14.22,247.73-17.62,371.59-19.37,61.93-1,123.87-1.15,185.8-.9l185.8,1.05q185.79,1.24,371.59.91H4113.29l185.8-.05c61.93-.25,123.86-1,185.79-1.8,61.94-.54,123.87.22,185.8,2.74,61.93,2.76,123.87,7.09,185.8,17.42,4.71.79,7.94,5.52,7.2,10.58a9,9,0,0,1-7.2,7.73c-61.93,10.33-123.87,14.66-185.8,17.42-61.93,2.52-123.86,3.28-185.8,2.74-61.93-.76-123.86-1.55-185.79-1.8l-185.8,0H25.76q-185.8-.21-371.59.91l-185.8,1.05c-61.93.25-123.87.06-185.8-.9-123.86-1.75-247.73-5.15-371.59-19.37-4.72-.54-8.13-5.08-7.62-10.13A8.92,8.92,0,0,1-1089,4247.27Z" transform="translate(1294 1041)"/><path class="cls-40" d="M3836.29,3236.71V3324H3745v-84.63c0-42.65-16.08-81.13-42.18-109.12s-62-45.15-101.76-45.15c-79.46,0-143.94,69.06-143.94,154.27V3324h-91.27v-87.3c0-139,105.57-252.22,235.21-252.22S3836.29,3097.69,3836.29,3236.71Z" transform="translate(1294 1041)"/><g class="cls-16"><path class="cls-15" d="M3836.29,3236.71V3324H3745v-84.63c0-42.65-16.08-81.13-42.18-109.12s-62-45.15-101.76-45.15c-79.46,0-143.94,69.06-143.94,154.27V3324h-91.27v-87.3c0-139,105.57-252.22,235.21-252.22S3836.29,3097.69,3836.29,3236.71Z" transform="translate(1294 1041)"/></g><path class="cls-15" d="M3836.29,3347.92H3745c-12.3,0-22.28-10.71-22.28-23.91v-84.63c0-34.82-12.67-67.57-35.66-92.22s-53.48-38.14-86-38.14c-67.07,0-121.65,58.48-121.65,130.36V3324c0,13.2-10,23.91-22.29,23.91h-91.27c-12.31,0-22.29-10.71-22.29-23.91v-87.3c0-152.25,115.52-276.12,257.5-276.12s257.51,123.87,257.51,276.12V3324C3858.58,3337.21,3848.6,3347.92,3836.29,3347.92Zm-69-47.81H3814v-63.4c0-125.9-95.52-228.31-212.93-228.31s-212.92,102.41-212.92,228.31v63.4h46.7v-60.73c0-98.24,74.57-178.17,166.22-178.17,44.43,0,86.16,18.52,117.52,52.15s48.71,78.43,48.71,126Z" transform="translate(1294 1041)"/><path class="cls-15" d="M3745,3347.92H3457.13c-12.3,0-22.28-10.71-22.28-23.91v-84.63c0-98.24,74.57-178.17,166.22-178.17,44.43,0,86.16,18.52,117.52,52.15s48.71,78.43,48.71,126V3324C3767.3,3337.21,3757.32,3347.92,3745,3347.92Zm-265.59-47.81h243.31v-60.73c0-34.82-12.67-67.57-35.66-92.22s-53.48-38.14-86-38.14c-67.07,0-121.65,58.48-121.65,130.36Z" transform="translate(1294 1041)"/><path class="cls-31" d="M3923.94,4169.15c.38,44.9-33.48,81.55-75.35,81.55H3159.8c-41.87,0-75.73-36.65-75.34-81.55l45.2-765.09c.39-44.31,34-80,75.35-80h598.37c41.32,0,75,35.74,75.35,80Z" transform="translate(1294 1041)"/><g class="cls-13"><path class="cls-14" d="M3126.64,3389.23a70.23,70.23,0,0,1,25.17-4.66h598.36c41.4,0,75,35.73,75.35,80l45.21,765.09a85.37,85.37,0,0,1-5.52,31.07c29.44-11.16,50.5-41.48,50.18-76.88l-45.2-765.1c-.39-44.31-34-80.05-75.35-80.05H3196.47C3164.86,3338.75,3137.82,3359.66,3126.64,3389.23Z" transform="translate(1294 1041)"/></g><path class="cls-31" d="M4091,4169.15c.39,44.9-33.48,81.55-75.35,81.55h-167c41.87,0,75.73-36.65,75.35-81.55l-45.21-765.09c-.39-44.31-34-80-75.35-80h143.7c41.33,0,75,35.74,75.35,80Z" transform="translate(1294 1041)"/><g class="cls-39"><path class="cls-15" d="M4091,4169.15c.39,44.9-33.48,81.55-75.35,81.55h-167c41.87,0,75.73-36.65,75.35-81.55l-45.21-765.09c-.39-44.31-34-80-75.35-80h143.7c41.33,0,75,35.74,75.35,80Z" transform="translate(1294 1041)"/></g><path class="cls-15" d="M3848.59,4278.17H3159.8c-27.13,0-52.6-11.4-71.71-32.08s-29.49-48.1-29.24-77.19c0-.5,0-1,.05-1.48L3104.07,3403c.91-58.77,46-106.45,100.94-106.45h598.37c54.91,0,100,47.68,100.94,106.46l45.18,764.41c0,.49,0,1,.05,1.48.24,29.09-10.14,56.51-29.25,77.19S3875.72,4278.17,3848.59,4278.17Zm-738.53-108.1a55,55,0,0,0,14.42,37.36,47.77,47.77,0,0,0,35.32,15.81h688.79a47.81,47.81,0,0,0,35.33-15.81,55,55,0,0,0,14.41-37.36l-45.17-764.28c0-.49,0-1,0-1.48-.25-29.13-22.56-52.83-49.73-52.83H3205c-27.17,0-49.48,23.7-49.73,52.83,0,.5,0,1-.05,1.48Z" transform="translate(1294 1041)"/><path class="cls-15" d="M4015.6,4278.17h-167c-14.15,0-25.62-12.3-25.62-27.47s11.47-27.46,25.62-27.46a47.81,47.81,0,0,0,35.33-15.81,55,55,0,0,0,14.41-37.36l-45.17-764.28c0-.49,0-1,0-1.48-.25-29.13-22.56-52.83-49.73-52.83-14.15,0-25.61-12.3-25.61-27.47s11.46-27.46,25.61-27.46h143.71c54.75,0,99.78,47.42,100.94,106l68.41,764c.08.8.11,1.58.12,2.38.25,29.1-10.14,56.52-29.25,77.19S4042.73,4278.17,4015.6,4278.17Zm-79.11-54.93h79.11a47.84,47.84,0,0,0,35.33-15.8,54.94,54.94,0,0,0,14.41-37l-68.4-763.78q-.11-1.18-.12-2.37c-.25-29.14-22.56-52.84-49.73-52.84h-55.94a113.33,113.33,0,0,1,13.18,51.53l45.17,764.41c0,.49,0,1,.05,1.48A113.81,113.81,0,0,1,3936.49,4223.24Z" transform="translate(1294 1041)"/><path class="cls-40" d="M3745,3236.71V3324h-91.27v-84.63c0-42.65-16.08-81.13-42.18-109.12s-62-45.15-101.76-45.15c-79.46,0-143.94,69.06-143.94,154.27V3324h-91.27v-87.3c0-139,105.56-252.22,235.21-252.22S3745,3097.69,3745,3236.71Z" transform="translate(1294 1041)"/><path class="cls-15" d="M3745,3347.92h-91.27c-12.31,0-22.29-10.71-22.29-23.91v-84.63c0-34.82-12.66-67.57-35.65-92.22s-53.48-38.14-86-38.14c-67.08,0-121.65,58.48-121.65,130.36V3324c0,13.2-10,23.91-22.29,23.91h-91.27c-12.31,0-22.29-10.71-22.29-23.91v-87.3c0-152.25,115.51-276.12,257.5-276.12s257.5,123.87,257.5,276.12V3324C3767.3,3337.21,3757.32,3347.92,3745,3347.92Zm-69-47.81h46.7v-63.4c0-125.9-95.52-228.31-212.93-228.31s-212.92,102.41-212.92,228.31v63.4h46.69v-60.73c0-98.24,74.57-178.17,166.23-178.17,44.42,0,86.16,18.52,117.52,52.15s48.71,78.43,48.71,126Z" transform="translate(1294 1041)"/><path class="cls-15" d="M3653.74,3349H3365.86c-12.87,0-23.3-11.19-23.3-25v-84.63c0-98.84,75-179.26,167.24-179.26,44.69,0,86.68,18.63,118.24,52.47s49,78.91,49,126.79V3324C3677.05,3337.81,3666.61,3349,3653.74,3349Zm-264.57-50h241.26v-59.64c0-34.53-12.55-67-35.35-91.45s-53-37.82-85.28-37.82c-66.52,0-120.63,58-120.63,129.27Z" transform="translate(1294 1041)"/><path class="cls-15" d="M3653.74,3347.92H3365.86c-12.31,0-22.29-10.71-22.29-23.91v-84.63c0-98.24,74.57-178.17,166.23-178.17,44.42,0,86.16,18.52,117.52,52.15s48.71,78.43,48.71,126V3324C3676,3337.21,3666.05,3347.92,3653.74,3347.92Zm-265.59-47.81h243.3v-60.73c0-34.82-12.66-67.57-35.65-92.22s-53.48-38.14-86-38.14c-67.08,0-121.65,58.48-121.65,130.36Z" transform="translate(1294 1041)"/><g class="cls-16"><path class="cls-15" d="M3105.82,4169.15c-.39,44.9,33.48,81.55,75.35,81.55H3870c-401-106.87-657.71-370.51-718.92-846.64Z" transform="translate(1294 1041)"/></g><path class="cls-41" d="M685.94,4479.23H832.19a21.1,21.1,0,0,1,21.1,21.1v797.1a0,0,0,0,1,0,0H664.85a0,0,0,0,1,0,0v-797.1A21.1,21.1,0,0,1,685.94,4479.23Z"/><path class="cls-15" d="M-436.08,4261.39h-197.7V3480.13c0-25.84,19.6-46.86,43.7-46.86h110.3c24.09,0,43.7,21,43.7,46.86Zm-188.44-9.93h179.18V3480.13c0-20.37-15.45-36.93-34.44-36.93h-110.3c-19,0-34.44,16.56-34.44,36.93Z" transform="translate(1294 1041)"/><g class="cls-13"><path class="cls-30" d="M-440.74,3480.09v776.34h-49.35V3480.09c0-23.09-17.5-41.86-39-41.86h49.35C-458.24,3438.23-440.74,3457-440.74,3480.09Z" transform="translate(1294 1041)"/></g><path class="cls-15" d="M-440.71,4283.89H-629.15c-14.15,0-25.61-12.3-25.61-27.47V3480.13c0-38.25,29-69.36,64.68-69.36h110.3c35.66,0,64.68,31.11,64.68,69.36v776.29C-415.1,4271.59-426.57,4283.89-440.71,4283.89ZM-603.54,4229h137.21V3480.13c0-8-6-14.43-13.45-14.43h-110.3c-7.42,0-13.46,6.47-13.46,14.43Z" transform="translate(1294 1041)"/><path class="cls-15" d="M-534.93,3465.7c-14.14,0-25.61-12.3-25.61-27.47V2465.57c0-77.26-58.62-140.13-130.68-140.13H-788c-14.14,0-25.61-12.29-25.61-27.46s11.47-27.46,25.61-27.46h96.75c100.3,0,181.9,87.5,181.9,195.05v972.66C-509.32,3453.4-520.79,3465.7-534.93,3465.7Z" transform="translate(1294 1041)"/><path class="cls-31" d="M80.72,3339H494.47a0,0,0,0,1,0,0v174.85a22.41,22.41,0,0,1-22.41,22.41H48a22.41,22.41,0,0,1-22.41-22.41V3394.09A55.11,55.11,0,0,1,80.72,3339Z"/><g class="cls-13"><path class="cls-14" d="M-799.53,2298v56.1h-366.74c-54,0-98.17,44.93-101.85,101.8a47,47,0,0,1-.27-5.1v-43.3c0-60.52,45.68-109.5,102.12-109.5Z" transform="translate(1294 1041)"/></g><path class="cls-15" d="M-841,2522.7h-385.86c-37,0-67.11-32.29-67.11-72v-43.3c0-75.5,57.28-136.91,127.68-136.91h366.79c14.14,0,25.61,12.29,25.61,27.46v152.75C-773.92,2490.41-804,2522.7-841,2522.7Zm-325.29-197.26c-42.16,0-76.46,36.78-76.46,82v43.3c0,9.4,7.13,17,15.89,17H-841c8.76,0,15.89-7.64,15.89-17V2325.44Z" transform="translate(1294 1041)"/><path class="cls-19" d="M-878,2495.24h-300.6c0,124,300.6,124,300.6,0" transform="translate(1294 1041)"/><path class="cls-15" d="M-1028.35,2615.72c-43.37,0-84.22-9.34-115-26.28-39.26-21.61-60.89-55.07-60.89-94.21,0-15.16,11.47-27.46,25.61-27.46H-878c14.15,0,25.61,12.3,25.61,27.46C-852.44,2578-943.62,2615.72-1028.35,2615.72Zm-114.34-93c20.57,24.9,68.54,38.09,114.34,38.09s93.76-13.19,114.33-38.09Z" transform="translate(1294 1041)"/><g class="cls-16"><path class="cls-15" d="M4959,4260.78c48.12,0,56.8,72.89,10.15,85.4C4549.82,4458.65,3324.26,4540,1877.71,4540s-2672.06-81.35-3091.4-193.82c-46.65-12.51-38-85.4,10.14-85.4Z" transform="translate(1294 1041)"/></g><ellipse class="cls-42" cx="3979.01" cy="934.17" rx="372.13" ry="399.04"/><path class="cls-14" d="M3346,70.33a170.45,170.45,0,0,0-38.21,4.35c.42-4.36.68-8.77.68-13.25,0-70-52.89-126.79-118.23-126.79-60.26,0-110,48.42-117.25,111-41.36-45.33-99-73.57-162.78-73.57-118.24,0-215.45,96.84-226.45,220.62a117.93,117.93,0,0,0-23.61-2.44c-69.51,0-125.82,60.38-125.82,134.92s56.31,134.93,125.82,134.93H3346c100.37,0,181.73-87.26,181.73-194.89S3446.4,70.33,3346,70.33Z" transform="translate(1294 1041)"/><path class="cls-14" d="M1602.6,576c0,37-27.95,66.95-62.44,66.95H1058.78c-52.66,0-95.36-45.79-95.36-102.26s42.7-102.2,95.36-102.2a89.21,89.21,0,0,1,17.86,1.87c8.35-93.8,82-167.14,171.59-167.14,70.59,0,131.15,45.45,157.8,110.53a115.67,115.67,0,0,1,22.07-2.22c66.51,0,120.66,57.16,121.83,128.28C1579.76,514.78,1602.6,542.53,1602.6,576Z" transform="translate(1294 1041)"/><path class="cls-14" d="M481.69-3.61c-1.62-98.63-76.73-177.92-169-177.92a160.85,160.85,0,0,0-30.6,3.08c-37-90.25-121-153.28-218.86-153.28-118.91,0-217.47,93.12-235.91,215.11a131.87,131.87,0,0,0-26.88-2.83c-77.38,0-140.12,67.27-140.12,150.25,0,.38.06.75.06,1.13C-354.9,13.46-377.16,1.76-402,1.76c-46.16,0-83.59,40.13-83.59,89.64s37.43,89.65,83.59,89.65H468.14c47.82,0,86.59-41.57,86.59-92.86C554.73,41.81,523.05,3.32,481.69-3.61Z" transform="translate(1294 1041)"/><path class="cls-14" d="M4717.1,1064.48c-1.61-98.63-76.72-177.92-169-177.92a160.85,160.85,0,0,0-30.6,3.08c-37-90.26-121-153.28-218.86-153.28-118.91,0-217.47,93.12-235.91,215.11a131.17,131.17,0,0,0-26.88-2.83c-77.39,0-140.12,67.27-140.12,150.25,0,.38.05.75.06,1.13-15.32-18.47-37.58-30.17-62.44-30.17-46.17,0-83.59,40.13-83.59,89.64s37.42,89.64,83.59,89.64h870.16c47.83,0,86.6-41.56,86.6-92.85C4790.15,1109.9,4758.47,1071.41,4717.1,1064.48Z" transform="translate(1294 1041)"/></svg>